<svg width="24" height="24" viewBox="0 0 24 24" fill="none" xmlns="http://www.w3.org/2000/svg">
<path d="M21.0006 12.0004C21.0006 12.1993 20.9216 12.3901 20.7809 12.5307C20.6403 12.6714 20.4495 12.7504 20.2506 12.7504H5.5609L11.0312 18.2198C11.1009 18.2895 11.1562 18.3722 11.1939 18.4632C11.2316 18.5543 11.251 18.6519 11.251 18.7504C11.251 18.849 11.2316 18.9465 11.1939 19.0376C11.1562 19.1286 11.1009 19.2114 11.0312 19.281C10.9615 19.3507 10.8788 19.406 10.7878 19.4437C10.6967 19.4814 10.5991 19.5008 10.5006 19.5008C10.402 19.5008 10.3045 19.4814 10.2134 19.4437C10.1224 19.406 10.0396 19.3507 9.96996 19.281L3.21996 12.531C3.15023 12.4614 3.09491 12.3787 3.05717 12.2876C3.01943 12.1966 3 12.099 3 12.0004C3 11.9019 3.01943 11.8043 3.05717 11.7132C3.09491 11.6222 3.15023 11.5394 3.21996 11.4698L9.96996 4.71979C10.1107 4.57906 10.3016 4.5 10.5006 4.5C10.6996 4.5 10.8905 4.57906 11.0312 4.71979C11.1719 4.86052 11.251 5.05139 11.251 5.25042C11.251 5.44944 11.1719 5.64031 11.0312 5.78104L5.5609 11.2504H20.2506C20.4495 11.2504 20.6403 11.3294 20.7809 11.4701C20.9216 11.6107 21.0006 11.8015 21.0006 12.0004Z" fill="#102A56"/>
</svg>
