<svg width="16" height="16" viewBox="0 0 16 16" fill="none" xmlns="http://www.w3.org/2000/svg">
<rect width="16" height="16" rx="8" fill="#E0FE10"/>
<path d="M11.2653 6.51528L7.2653 10.5153C7.23046 10.5502 7.18906 10.578 7.14348 10.5969C7.0979 10.6158 7.04903 10.6256 6.99967 10.6256C6.95032 10.6256 6.90145 10.6158 6.85587 10.5969C6.81028 10.578 6.76889 10.5502 6.73405 10.5153L4.98405 8.76528C4.94917 8.7304 4.9215 8.68899 4.90262 8.64341C4.88374 8.59784 4.87402 8.54899 4.87402 8.49966C4.87402 8.45033 4.88374 8.40148 4.90262 8.3559C4.9215 8.31033 4.94917 8.26892 4.98405 8.23403C5.01893 8.19915 5.06034 8.17148 5.10592 8.1526C5.15149 8.13373 5.20034 8.12401 5.24967 8.12401C5.29901 8.12401 5.34785 8.13373 5.39343 8.1526C5.43901 8.17148 5.48042 8.19915 5.5153 8.23403L6.99999 9.71872L10.7347 5.98466C10.8051 5.91421 10.9007 5.87463 11.0003 5.87463C11.0999 5.87463 11.1955 5.91421 11.2659 5.98466C11.3364 6.05511 11.3759 6.15066 11.3759 6.25028C11.3759 6.34991 11.3364 6.44546 11.2659 6.51591L11.2653 6.51528Z" fill="#102A56"/>
</svg>
