<svg width="16" height="16" viewBox="0 0 16 16" fill="none" xmlns="http://www.w3.org/2000/svg">
<path d="M7.08203 6.75H9.54297L8.91797 9.25H6.45703L7.08203 6.75ZM15.5 1.75V14.25C15.5 14.5815 15.3683 14.8995 15.1339 15.1339C14.8995 15.3683 14.5815 15.5 14.25 15.5H1.75C1.41848 15.5 1.10054 15.3683 0.866116 15.1339C0.631696 14.8995 0.5 14.5815 0.5 14.25V1.75C0.5 1.41848 0.631696 1.10054 0.866116 0.866116C1.10054 0.631696 1.41848 0.5 1.75 0.5H14.25C14.5815 0.5 14.8995 0.631696 15.1339 0.866116C15.3683 1.10054 15.5 1.41848 15.5 1.75ZM14.25 6.125C14.25 5.95924 14.1842 5.80027 14.0669 5.68306C13.9497 5.56585 13.7908 5.5 13.625 5.5H11.1445L11.7312 3.15156C11.7683 2.99189 11.7411 2.82407 11.6556 2.68425C11.57 2.54443 11.433 2.44381 11.274 2.40405C11.115 2.3643 10.9467 2.3886 10.8054 2.47172C10.6642 2.55484 10.5612 2.69013 10.5188 2.84844L9.85547 5.5H7.39453L7.98125 3.15156C8.01827 2.99189 7.99109 2.82407 7.90556 2.68425C7.82003 2.54443 7.683 2.44381 7.52399 2.40405C7.36498 2.3643 7.19671 2.3886 7.05545 2.47172C6.91418 2.55484 6.81122 2.69013 6.76875 2.84844L6.10547 5.5H3C2.83424 5.5 2.67527 5.56585 2.55806 5.68306C2.44085 5.80027 2.375 5.95924 2.375 6.125C2.375 6.29076 2.44085 6.44973 2.55806 6.56694C2.67527 6.68415 2.83424 6.75 3 6.75H5.79297L5.16797 9.25H2.375C2.20924 9.25 2.05027 9.31585 1.93306 9.43306C1.81585 9.55027 1.75 9.70924 1.75 9.875C1.75 10.0408 1.81585 10.1997 1.93306 10.3169C2.05027 10.4342 2.20924 10.5 2.375 10.5H4.85547L4.26875 12.8484C4.22858 13.0092 4.25391 13.1794 4.33918 13.3215C4.42444 13.4636 4.56266 13.566 4.72344 13.6062C4.77454 13.619 4.82703 13.6253 4.87969 13.625C5.01893 13.6248 5.15411 13.5781 5.2638 13.4924C5.37349 13.4066 5.45139 13.2866 5.48516 13.1516L6.14453 10.5H8.60547L8.01875 12.8484C7.97858 13.0092 8.00391 13.1794 8.08918 13.3215C8.17444 13.4636 8.31266 13.566 8.47344 13.6062C8.52302 13.6186 8.57391 13.6249 8.625 13.625C8.76424 13.6248 8.89942 13.5781 9.00911 13.4924C9.1188 13.4066 9.1967 13.2866 9.23047 13.1516L9.89453 10.5H13C13.1658 10.5 13.3247 10.4342 13.4419 10.3169C13.5592 10.1997 13.625 10.0408 13.625 9.875C13.625 9.70924 13.5592 9.55027 13.4419 9.43306C13.3247 9.31585 13.1658 9.25 13 9.25H10.207L10.832 6.75H13.625C13.7908 6.75 13.9497 6.68415 14.0669 6.56694C14.1842 6.44973 14.25 6.29076 14.25 6.125Z" fill="#102A56"/>
</svg>
