<svg width="24" height="17" viewBox="0 0 24 17" fill="none" xmlns="http://www.w3.org/2000/svg">
<path d="M23.8398 6.11707L21.4473 1.33019C21.3592 1.154 21.2372 0.996904 21.0884 0.867863C20.9395 0.738822 20.7667 0.640367 20.5798 0.578121C20.3929 0.515875 20.1955 0.491058 19.999 0.505086C19.8025 0.519115 19.6107 0.571714 19.4345 0.65988L17.103 1.82519L12.1914 0.525818C12.0654 0.493022 11.9331 0.493022 11.807 0.525818L6.89548 1.82519L4.56391 0.65988C4.38774 0.571714 4.19592 0.519115 3.99942 0.505086C3.80292 0.491058 3.60558 0.515875 3.41866 0.578121C3.23175 0.640367 3.05893 0.738822 2.91008 0.867863C2.76122 0.996904 2.63924 1.154 2.5511 1.33019L0.158602 6.11613C0.0704353 6.2923 0.0178362 6.48412 0.00380791 6.68062C-0.0102204 6.87713 0.0145969 7.07447 0.0768426 7.26138C0.139088 7.44829 0.237543 7.62111 0.366585 7.76997C0.495626 7.91882 0.652726 8.0408 0.828914 8.12894L3.36016 9.3955L8.56235 13.1108C8.639 13.1654 8.72517 13.2051 8.81641 13.228L14.8164 14.728C14.9421 14.7595 15.0737 14.7579 15.1986 14.7234C15.3235 14.6889 15.4373 14.6227 15.5289 14.5311L20.6917 9.36738L23.1686 8.12894C23.5242 7.95094 23.7945 7.63903 23.9202 7.26177C24.0459 6.8845 24.0167 6.47277 23.8389 6.11707H23.8398ZM18.6939 9.2455L15.468 6.66175C15.3235 6.54602 15.1412 6.48783 14.9564 6.49839C14.7715 6.50894 14.5971 6.5875 14.4667 6.71894C12.797 8.40082 10.9361 8.188 9.74923 7.438L13.803 3.5005H16.7852L19.3361 8.60144L18.6939 9.2455ZM3.89266 2.00051L5.81173 2.95863L3.41454 7.74457L1.49923 6.78738L3.89266 2.00051ZM14.7677 13.1689L9.31985 11.8077L4.70735 8.51332L7.33235 3.26332L11.9992 2.02675L12.918 2.26957L8.69923 6.36457L8.69173 6.373C8.53292 6.53181 8.4118 6.72425 8.3373 6.93612C8.26281 7.14799 8.23684 7.37389 8.26132 7.59714C8.28579 7.82039 8.36009 8.03529 8.47872 8.22599C8.59735 8.41669 8.75728 8.57832 8.94673 8.69894C10.8742 9.92988 13.2002 9.73019 15.032 8.23019L17.6242 10.3124L14.7677 13.1689ZM20.5802 7.74363L18.1877 2.96238L20.1058 2.00051L22.4992 6.78738L20.5802 7.74363ZM12.3536 16.4314C12.3131 16.5935 12.2196 16.7375 12.088 16.8404C11.9563 16.9433 11.7941 16.9993 11.627 16.9996C11.5654 16.9995 11.504 16.9919 11.4442 16.9771L7.53766 16.0002C7.44629 15.9776 7.36006 15.9379 7.2836 15.883L4.81329 14.1186C4.6614 13.9994 4.56136 13.8261 4.53401 13.6349C4.50666 13.4438 4.55411 13.2494 4.66647 13.0924C4.77883 12.9353 4.94745 12.8276 5.13721 12.7918C5.32696 12.7559 5.52324 12.7946 5.68516 12.8999L8.03923 14.5818L11.8117 15.523C12.0047 15.5713 12.1705 15.6942 12.2728 15.8647C12.3752 16.0352 12.4056 16.2394 12.3574 16.4324L12.3536 16.4314Z" fill="#6C737F"/>
</svg>
