<svg width="120" height="46" viewBox="0 0 120 46" fill="none" xmlns="http://www.w3.org/2000/svg">
<g clip-path="url(#clip0_5105_6296)">
<g clip-path="url(#clip1_5105_6296)">
<path d="M33.0589 30.4313H34.249C34.7326 30.4313 34.9745 30.4313 35.1247 30.5815C35.2749 30.7317 35.2749 30.9736 35.2749 31.4572V33.9358C35.2749 34.4195 35.2749 34.6613 35.1247 34.8115C34.9745 34.9618 34.7326 34.9618 34.249 34.9618H33.0589C29.7103 34.9618 27.0511 32.2533 27.0511 28.9539V15.3623C27.0511 14.9185 27.0511 14.6966 26.9229 14.5512C26.9087 14.5351 26.8934 14.5198 26.8773 14.5056C26.7319 14.3774 26.51 14.3774 26.0662 14.3774C25.6223 14.3774 25.4004 14.3774 25.255 14.2493C25.2389 14.235 25.2237 14.2198 25.2095 14.2037C25.0813 14.0583 25.0813 13.8364 25.0813 13.3926V11.0288C25.0813 10.585 25.0813 10.363 25.2095 10.2176C25.2237 10.2015 25.2389 10.1863 25.255 10.1721C25.4004 10.0439 25.6223 10.0439 26.0662 10.0439C26.51 10.0439 26.7319 10.0439 26.8773 9.91572C26.8934 9.90151 26.9087 9.88629 26.9229 9.87017C27.0511 9.72477 27.0511 9.50285 27.0511 9.05901V4.52301C27.0511 4.19148 27.0511 4.02572 27.1372 3.89649C27.2234 3.76726 27.3764 3.70351 27.6824 3.576L30.358 2.46115C31.0005 2.19346 31.3217 2.05962 31.5501 2.2119C31.7786 2.36418 31.7786 2.71218 31.7786 3.40816V9.01797C31.7786 9.5016 31.7786 9.74342 31.9288 9.89366C32.0791 10.0439 32.3209 10.0439 32.8045 10.0439H34.249C34.7326 10.0439 34.9745 10.0439 35.1247 10.1941C35.2749 10.3444 35.2749 10.5862 35.2749 11.0698V13.3515C35.2749 13.8351 35.2749 14.077 35.1247 14.2272C34.9745 14.3774 34.7326 14.3774 34.249 14.3774H32.8045C32.3209 14.3774 32.0791 14.3774 31.9288 14.5277C31.7786 14.6779 31.7786 14.9198 31.7786 15.4034V29.1509C31.7786 29.8403 32.3203 30.4313 33.0589 30.4313Z" fill="white"/>
<path d="M45.9338 9.74843C48.396 9.74843 51.006 12.1614 51.006 15.7071V19.4833C51.006 19.8469 51.006 20.0287 50.9063 20.1643C50.8066 20.2999 50.6331 20.3541 50.2861 20.4626L47.6104 21.2987C47.0013 21.489 46.6967 21.5842 46.4876 21.4305C46.2785 21.2767 46.2785 20.9576 46.2785 20.3195V15.5593C46.2785 14.8699 45.6875 14.279 44.9981 14.279H44.3087C43.57 14.279 43.0283 14.8699 43.0283 15.5593V33.6404C43.0283 34.124 43.0283 34.3658 42.8781 34.5161C42.7278 34.6663 42.486 34.6663 42.0024 34.6663H39.2775C38.7939 34.6663 38.5521 34.6663 38.4018 34.5161C38.2516 34.3658 38.2516 34.124 38.2516 33.6404V11.0698C38.2516 10.5862 38.2516 10.3444 38.4018 10.1941C38.5521 10.0439 38.7939 10.0439 39.2775 10.0439H42.7314C42.8682 10.0439 42.9791 10.1548 42.9791 10.2916C42.9791 10.5739 43.5673 10.7193 43.7696 10.5224C44.3281 9.9785 45.0734 9.74843 45.9338 9.74843Z" fill="white"/>
<path d="M66.3523 33.2972C66.5736 33.9205 66.6842 34.2322 66.5309 34.4492C66.3776 34.6663 66.0469 34.6663 65.3855 34.6663H62.7369C62.3868 34.6663 62.2117 34.6663 62.0787 34.5723C61.9456 34.4784 61.8871 34.3134 61.77 33.9835L59.6716 28.0697C58.9109 25.9261 58.5306 24.8543 58.1047 24.9276C57.6788 25.001 57.6788 26.1382 57.6788 28.4128V33.6404C57.6788 34.124 57.6788 34.3658 57.5285 34.5161C57.3783 34.6663 57.1365 34.6663 56.6528 34.6663H53.9772C53.4936 34.6663 53.2518 34.6663 53.1015 34.5161C52.9513 34.3658 52.9513 34.124 52.9513 33.6404V2.6818C52.9513 2.19817 52.9513 1.95636 53.1015 1.80612C53.2518 1.65587 53.4936 1.65587 53.9772 1.65587H56.6528C57.1365 1.65587 57.3783 1.65587 57.5285 1.80612C57.6788 1.95636 57.6788 2.19817 57.6788 2.6818V12.8806C57.6788 14.9593 57.6788 15.9987 58.0958 16.0781C58.5128 16.1575 58.8948 15.1909 59.6588 13.2576L60.6725 10.6928C60.7967 10.3786 60.8587 10.2215 60.9893 10.1327C61.1199 10.0439 61.2888 10.0439 61.6266 10.0439H64.245C64.9294 10.0439 65.2716 10.0439 65.4243 10.2686C65.5769 10.4933 65.4509 10.8114 65.1988 11.4477L61.8587 19.8795C61.7885 20.0566 61.7535 20.1451 61.7518 20.2382C61.7501 20.3313 61.782 20.421 61.8457 20.6005L66.3523 33.2972Z" fill="white"/>
<path d="M86.5345 10.0439C87.0651 10.0439 87.3304 10.0439 87.4831 10.213C87.6359 10.3822 87.609 10.6461 87.5551 11.1739L85.2529 33.7445C85.2083 34.1827 85.1859 34.4017 85.0394 34.534C84.893 34.6663 84.6727 34.6663 84.2323 34.6663H79.6022C79.1911 34.6663 78.9856 34.6663 78.8437 34.5498C78.8318 34.54 78.8203 34.5297 78.8094 34.5189C78.6785 34.3901 78.6568 34.1858 78.6133 33.777C78.2645 30.4945 78.09 28.8533 77.6705 28.8155C77.6399 28.8127 77.609 28.8127 77.5784 28.8155C77.1589 28.8533 76.9845 30.4945 76.6356 33.777C76.5921 34.1858 76.5704 34.3901 76.4396 34.5189C76.4286 34.5297 76.4171 34.54 76.4053 34.5498C76.2634 34.6663 76.0578 34.6663 75.6467 34.6663H71.0659C70.6254 34.6663 70.4052 34.6663 70.2587 34.534C70.1123 34.4017 70.0899 34.1827 70.0452 33.7445L67.743 11.1739C67.6892 10.6461 67.6623 10.3822 67.815 10.213C67.9678 10.0439 68.2331 10.0439 68.7637 10.0439H71.3132C71.7611 10.0439 71.985 10.0439 72.1322 10.1793C72.2795 10.3147 72.2981 10.5379 72.3355 10.9842L73.9147 29.8421C73.924 29.9524 74.0163 30.0373 74.127 30.0373C74.2386 30.0373 74.3313 29.9511 74.3394 29.8398L75.45 14.5813C75.4538 14.5287 75.4558 14.5023 75.455 14.476C75.4542 14.4497 75.4507 14.4235 75.4437 14.3712L75.0216 11.2054C74.9495 10.6645 74.9134 10.394 75.0667 10.219C75.22 10.0439 75.4928 10.0439 76.0386 10.0439H78.5428C78.9948 10.0439 79.2208 10.0439 79.3684 10.181C79.516 10.3181 79.5327 10.5435 79.566 10.9942L80.9585 29.8399C80.9667 29.9512 81.0594 30.0373 81.1711 30.0373C81.2819 30.0373 81.3742 29.9524 81.3834 29.842L82.9626 10.9842C83 10.5379 83.0187 10.3147 83.1659 10.1793C83.3132 10.0439 83.5371 10.0439 83.985 10.0439H86.5345Z" fill="#E0FE10"/>
<path d="M98.4042 10.3968C98.4042 10.2019 98.5622 10.0439 98.7572 10.0439H102.106C102.589 10.0439 102.831 10.0439 102.981 10.1941C103.132 10.3444 103.132 10.5862 103.132 11.0698V39.4431C103.132 42.7425 100.423 45.4509 97.1239 45.4509H95.942C92.6426 45.4509 89.9341 42.7425 89.9341 39.4431V39.3527C89.9341 38.9925 89.9341 38.8124 90.0324 38.6774C90.1306 38.5425 90.302 38.4871 90.6448 38.3764L93.3204 37.5124C93.9331 37.3146 94.2395 37.2156 94.4505 37.3693C94.6616 37.5229 94.6616 37.8448 94.6616 38.4887V39.64C94.6616 40.3295 95.2526 40.9204 95.942 40.9204H97.1239C97.8133 40.9204 98.4042 40.3295 98.4042 39.64V36.6946C98.4042 35.5527 98.4042 34.9816 98.2353 34.8289C98.0664 34.6762 97.2075 34.7627 95.4896 34.9358C95.315 34.9534 95.1373 34.9618 94.9571 34.9618C92.4948 34.9618 89.8849 32.598 89.8849 29.0524V15.7071C89.8849 12.1614 92.4948 9.74843 94.9571 9.74843C95.9523 9.74843 96.8705 10.0306 97.6192 10.6875C97.8852 10.921 98.4042 10.7508 98.4042 10.3968ZM98.355 29.1509V15.5593C98.355 14.8699 97.764 14.279 97.0746 14.279H95.8927C95.2033 14.279 94.6124 14.8699 94.6124 15.5593V29.1509C94.6124 29.8403 95.2033 30.4313 95.8927 30.4313H97.0746C97.764 30.4313 98.355 29.8403 98.355 29.1509Z" fill="#E0FE10"/>
<path d="M114.928 9.74843C117.39 9.74843 120 12.1614 120 15.7071V19.4833C120 19.8469 120 20.0287 119.9 20.1643C119.801 20.2999 119.627 20.3541 119.28 20.4626L116.604 21.2987C115.995 21.489 115.691 21.5842 115.482 21.4305C115.272 21.2767 115.272 20.9576 115.272 20.3195V15.5593C115.272 14.8699 114.682 14.279 113.992 14.279H113.303C112.564 14.279 112.022 14.8699 112.022 15.5593V33.6404C112.022 34.124 112.022 34.3658 111.872 34.5161C111.722 34.6663 111.48 34.6663 110.996 34.6663H108.272C107.788 34.6663 107.546 34.6663 107.396 34.5161C107.246 34.3658 107.246 34.124 107.246 33.6404V11.0698C107.246 10.5862 107.246 10.3444 107.396 10.1941C107.546 10.0439 107.788 10.0439 108.272 10.0439H111.725C111.862 10.0439 111.973 10.1548 111.973 10.2916C111.973 10.5739 112.561 10.7193 112.764 10.5224C113.322 9.9785 114.067 9.74843 114.928 9.74843Z" fill="#E0FE10"/>
<path d="M10.1397 24.7415C10.5362 24.6507 10.7345 24.6053 10.8781 24.6585C11.0216 24.7118 11.1288 24.8571 11.3432 25.1478L13.4729 28.0355C13.4783 28.0428 13.481 28.0465 13.4833 28.0496C13.6534 28.273 13.9715 28.3183 14.1971 28.151C14.2001 28.1488 14.2037 28.146 14.211 28.1405C14.2181 28.135 14.2216 28.1323 14.2246 28.13C14.4423 27.9583 14.4843 27.6448 14.3194 27.422C14.3171 27.4189 14.3144 27.4154 14.309 27.4083L11.7695 24.0807C11.6287 23.8668 11.5582 23.7598 11.5255 23.7258C11.3706 23.5647 11.3459 23.5551 11.1228 23.5694C11.0758 23.5724 10.8996 23.6169 10.5472 23.706C10.0733 23.8257 9.32723 23.933 8.17464 23.933C6.1556 23.933 2.11753 23.0466 2.11753 17.6296C2.11753 15.0578 3.43173 13.2218 4.20514 12.364C4.47908 12.0602 4.61605 11.9083 4.64017 11.7589C4.6643 11.6096 4.59082 11.4421 4.44385 11.107L4.43203 11.0801C3.93959 9.79972 3.89034 8.61784 3.89034 7.48521C3.89034 4.43203 5.95862 0 11.5725 0C16.5955 0 19.6487 3.89034 19.6487 6.94352C19.6487 8.22077 19.4524 9.23627 19.2106 10.0089C19.0294 10.588 18.9388 10.8775 18.6521 10.9435C18.3654 11.0094 18.1383 10.7683 17.6841 10.2861L14.257 6.64694C14.25 6.6395 14.2465 6.63578 14.2435 6.63271C14.0463 6.43023 13.7225 6.42538 13.5194 6.62185C13.5163 6.62483 13.5127 6.62844 13.5055 6.63567C13.4987 6.64247 13.4953 6.64588 13.4924 6.64883C13.3048 6.84257 13.2992 7.14853 13.4797 7.34895C13.4824 7.35201 13.4857 7.35553 13.4923 7.36258L20.3381 14.7242C21.6677 16.1523 24.2777 19.304 24.2777 24.5239C24.2777 31.2212 18.2206 34.6684 13.2469 34.6684C8.1033 34.6684 3.62575 32.2264 0.488732 27.4267C0.253818 27.0673 0.136361 26.8876 0.172034 26.6873C0.207708 26.487 0.385636 26.3547 0.741494 26.0901L3.25658 24.2199C3.52869 24.0176 3.66474 23.9164 3.81265 23.9051C3.96055 23.8937 4.12876 23.9827 4.46518 24.1607C5.78125 24.8569 7.08228 24.9671 8.27313 24.9671C8.76508 24.9671 9.48269 24.8919 10.1397 24.7415Z" fill="white"/>
</g>
</g>
<defs>
<clipPath id="clip0_5105_6296">
<rect width="120" height="46" fill="white"/>
</clipPath>
<clipPath id="clip1_5105_6296">
<rect width="120" height="46" fill="white"/>
</clipPath>
</defs>
</svg>
