<svg width="18" height="20" viewBox="0 0 18 20" fill="none" xmlns="http://www.w3.org/2000/svg">
<path d="M17.7927 14.4944C17.2724 13.5981 16.4989 11.0622 16.4989 7.75C16.4989 5.76088 15.7087 3.85322 14.3022 2.4467C12.8957 1.04018 10.988 0.25 8.99891 0.25C7.00979 0.25 5.10214 1.04018 3.69561 2.4467C2.28909 3.85322 1.49891 5.76088 1.49891 7.75C1.49891 11.0631 0.724538 13.5981 0.204226 14.4944C0.0713545 14.7222 0.000914339 14.9811 8.84153e-06 15.2449C-0.000896656 15.5086 0.0677647 15.768 0.199068 15.9967C0.330372 16.2255 0.519675 16.4156 0.747887 16.5478C0.976099 16.6801 1.23515 16.7498 1.49891 16.75H5.32485C5.49789 17.5967 5.95806 18.3577 6.62754 18.9042C7.29702 19.4507 8.1347 19.7492 8.99891 19.7492C9.86312 19.7492 10.7008 19.4507 11.3703 18.9042C12.0398 18.3577 12.4999 17.5967 12.673 16.75H16.4989C16.7626 16.7496 17.0215 16.6798 17.2496 16.5475C17.4777 16.4151 17.6669 16.225 17.7981 15.9963C17.9292 15.7676 17.9978 15.5083 17.9969 15.2446C17.9959 14.9809 17.9255 14.7222 17.7927 14.4944ZM8.99891 18.25C8.53374 18.2499 8.08005 18.1055 7.70029 17.8369C7.32052 17.5683 7.03335 17.1886 6.87829 16.75H11.1195C10.9645 17.1886 10.6773 17.5683 10.2975 17.8369C9.91777 18.1055 9.46408 18.2499 8.99891 18.25ZM1.49891 15.25C2.22079 14.0087 2.99891 11.1325 2.99891 7.75C2.99891 6.1587 3.63105 4.63258 4.75627 3.50736C5.88149 2.38214 7.40762 1.75 8.99891 1.75C10.5902 1.75 12.1163 2.38214 13.2416 3.50736C14.3668 4.63258 14.9989 6.1587 14.9989 7.75C14.9989 11.1297 15.7752 14.0059 16.4989 15.25H1.49891Z" fill="#102A56"/>
</svg>
