<svg width="41" height="41" viewBox="0 0 41 41" fill="none" xmlns="http://www.w3.org/2000/svg">
<path d="M36.6644 8.63665V8.6311C36.6642 8.63203 36.664 8.63295 36.6638 8.63388C36.6635 8.63295 36.6633 8.63203 36.6631 8.6311V8.63665C36.5931 8.89996 36.4313 9.08837 36.1777 9.20165C36.4313 9.31493 36.5931 9.50334 36.6631 9.76665V9.7722C36.6633 9.77127 36.6635 9.77035 36.6638 9.76942C36.664 9.77035 36.6642 9.77127 36.6644 9.7722V9.76665C36.7344 9.50334 36.8962 9.31493 37.1498 9.20165C36.8962 9.08837 36.7344 8.89996 36.6644 8.63665Z" fill="#BABABA"/>
<path d="M26.9164 1.71954V1.71399C26.9162 1.71491 26.9159 1.71584 26.9157 1.71676C26.9155 1.71584 26.9153 1.71491 26.9151 1.71399V1.71954C26.8451 1.98285 26.6833 2.17126 26.4297 2.28454C26.6833 2.39781 26.8451 2.58622 26.9151 2.84954V2.85508C26.9153 2.85416 26.9155 2.85323 26.9157 2.85231C26.9159 2.85323 26.9162 2.85416 26.9164 2.85508V2.84954C26.9864 2.58622 27.1481 2.39781 27.4018 2.28454C27.1481 2.17126 26.9864 1.98285 26.9164 1.71954Z" fill="#BABABA"/>
<path d="M12.1137 26.0136V26.0081C12.1134 26.009 12.1132 26.0099 12.113 26.0108C12.1128 26.0099 12.1125 26.009 12.1123 26.0081V26.0136C12.0423 26.2769 11.8806 26.4653 11.627 26.5786C11.8806 26.6919 12.0423 26.8803 12.1123 27.1436V27.1492C12.1125 27.1482 12.1128 27.1473 12.113 27.1464C12.1132 27.1473 12.1134 27.1482 12.1137 27.1492V27.1436C12.1836 26.8803 12.3454 26.6919 12.599 26.5786C12.3454 26.4653 12.1836 26.2769 12.1137 26.0136Z" fill="#BABABA"/>
<path d="M4.0619 18.5575V18.552C4.06167 18.5529 4.06145 18.5539 4.06123 18.5548C4.061 18.5539 4.06078 18.5529 4.06056 18.552V18.5575C3.99058 18.8209 3.8288 19.0093 3.5752 19.1225C3.8288 19.2358 3.99058 19.4242 4.06056 19.6875V19.6931C4.06078 19.6922 4.061 19.6912 4.06123 19.6903C4.06145 19.6912 4.06167 19.6922 4.0619 19.6931V19.6875C4.13187 19.4242 4.29366 19.2358 4.54726 19.1225C4.29366 19.0093 4.13187 18.8209 4.0619 18.5575Z" fill="#BABABA"/>
<path d="M4.08127 27.3566V27.3455C4.08082 27.3473 4.08015 27.3492 4.07971 27.351C4.07926 27.3492 4.07859 27.3473 4.07815 27.3455V27.3566C3.9382 27.8832 3.61462 28.26 3.10742 28.4866C3.61462 28.7131 3.9382 29.0899 4.07815 29.6166V29.6276C4.07859 29.6258 4.07926 29.6239 4.07971 29.6221C4.08015 29.6239 4.08082 29.6258 4.08127 29.6276V29.6166C4.22122 29.0899 4.54479 28.7131 5.05199 28.4866C4.54479 28.26 4.22122 27.8834 4.08127 27.3566Z" fill="#BABABA"/>
<path d="M35.1516 0.010974V-0.00012207C35.1511 0.00172735 35.1505 0.00357655 35.15 0.00542598C35.1496 0.00357655 35.1489 0.00172735 35.1485 -0.00012207V0.010974C35.0085 0.537598 34.6849 0.914418 34.1777 1.14097C34.6849 1.36753 35.0085 1.74435 35.1485 2.27097V2.28207C35.1489 2.28022 35.1496 2.27837 35.15 2.27652C35.1505 2.27837 35.1511 2.28022 35.1516 2.28207V2.27097C35.2915 1.74435 35.6151 1.36753 36.1223 1.14097C35.6153 0.914418 35.2918 0.537829 35.1516 0.010974Z" fill="#BABABA"/>
<path d="M40.917 40.9239C35.5081 35.8667 28.3462 32.7883 20.4912 32.7883C12.6363 32.7883 5.4744 35.8667 0.0654297 40.9239H40.917Z" fill="#F8F9FB"/>
<path d="M40.9255 41.0003C40.9079 41.0003 40.8901 40.9938 40.8758 40.9804C39.5258 39.7181 38.0594 38.5754 36.5176 37.5839C34.9592 36.5818 33.3057 35.7227 31.6029 35.0306C28.0669 33.5933 24.3313 32.8644 20.4999 32.8644C16.6685 32.8644 12.9327 33.5931 9.39696 35.0306C7.69418 35.7227 6.04065 36.5818 4.48227 37.5839C2.94038 38.5754 1.47404 39.7181 0.124031 40.9804C0.0935005 41.0088 0.0464791 41.0063 0.0190688 40.9748C-0.00834153 40.9432 -0.00589042 40.8944 0.0244169 40.8659C1.38112 39.5975 2.85459 38.4492 4.40383 37.4531C5.96978 36.4461 7.63156 35.5828 9.34258 34.8872C12.8957 33.4428 16.6495 32.7104 20.4999 32.7104C24.3503 32.7104 28.1039 33.4428 31.6572 34.8872C33.3685 35.5828 35.0301 36.4461 36.596 37.4531C38.1452 38.4494 39.6187 39.5977 40.9754 40.8659C41.0059 40.8944 41.0084 40.9432 40.9808 40.9748C40.9658 40.9917 40.9458 41.0003 40.9255 41.0003Z" fill="black"/>
<path d="M3.06055 38.4561V37.1648C3.06055 37.1648 4.71698 35.2908 6.70367 34.1354C10.115 32.1514 11.8653 32.3905 11.8653 32.3905L14.2923 33.4393C14.2923 33.4393 12.6869 35.7849 9.44291 37.4866C7.07627 38.7282 5.07554 39.2024 5.07554 39.2024L3.06055 38.4561Z" fill="#F8F9FB"/>
<path d="M5.0841 39.2788C5.05022 39.2788 5.01969 39.2546 5.01167 39.219C5.00253 39.1776 5.02749 39.1362 5.0676 39.1267C5.08744 39.1221 7.08772 38.6399 9.41804 37.4174C11.0856 36.5426 12.3091 35.494 13.0416 34.7685C13.6664 34.1497 14.0488 33.6561 14.1845 33.4719L11.8553 32.4653C11.7889 32.4586 11.3553 32.4253 10.5757 32.5964C9.16021 32.9073 7.71326 33.6411 6.74877 34.2019C4.9096 35.2716 3.33563 36.9818 3.14353 37.1945V38.4556C3.14353 38.4981 3.11033 38.5326 3.06933 38.5326C3.02832 38.5326 2.99512 38.4981 2.99512 38.4556V37.1642C2.99512 37.1451 3.00203 37.1263 3.01473 37.1122C3.03144 37.0935 4.70191 35.2159 6.67634 34.0676C7.65353 33.4994 9.12009 32.7561 10.5575 32.4429C11.4239 32.254 11.8656 32.3109 11.8841 32.3134C11.8905 32.3144 11.897 32.316 11.903 32.3188L14.3301 33.3676C14.351 33.3766 14.3666 33.3949 14.3728 33.4175C14.3791 33.44 14.3751 33.4642 14.3619 33.4834C14.3579 33.4894 13.9472 34.085 13.1445 34.88C12.4047 35.6126 11.1694 36.6714 9.48557 37.5549C7.13786 38.7864 5.12131 39.2724 5.10103 39.277C5.09501 39.2784 5.08944 39.2788 5.0841 39.2788Z" fill="black"/>
<path d="M4.08222 37.2666C4.05259 37.2666 4.02451 37.2481 4.01292 37.2176C3.99799 37.178 4.01693 37.1332 4.05504 37.1177C4.05994 37.1156 4.57717 36.9036 7.04878 35.7198C9.5088 34.5414 10.4526 33.4757 10.4619 33.4651C10.4893 33.4334 10.5363 33.4309 10.5669 33.4595C10.5974 33.488 10.5999 33.5367 10.5724 33.5684C10.5626 33.5795 10.3287 33.8472 9.7829 34.2652C9.28194 34.6489 8.41194 35.2371 7.1114 35.8599C4.6311 37.0479 4.12969 37.2532 4.10941 37.2615C4.1005 37.2649 4.09136 37.2666 4.08222 37.2666Z" fill="black"/>
<path d="M26.0283 33.3085C26.0283 33.3085 27.8472 32.7883 28.1073 32.7883C28.8748 32.7883 30.0884 32.933 32.864 34.2686C35.6395 35.6038 37.2953 37.0695 37.2953 37.0695L38.2852 38.7197C38.2852 38.7197 35.634 39.0724 31.9995 37.6119C28.3651 36.1513 26.5549 34.5656 26.5549 34.5656L26.0283 33.3085Z" fill="#F8F9FB"/>
<path d="M37.5109 38.8335C37.239 38.8335 36.9021 38.8227 36.5079 38.7894C35.4837 38.7029 33.8671 38.4408 31.9814 37.683C30.9422 37.2655 29.3879 36.5661 27.8841 35.6058C26.9829 35.0304 26.5203 34.6277 26.5158 34.6236C26.4844 34.596 26.4806 34.5475 26.5069 34.5149C26.5334 34.4823 26.5802 34.4784 26.6116 34.5057C26.6161 34.5096 27.0727 34.907 27.9659 35.4768C28.79 36.0028 30.1652 36.7874 32.0353 37.5389C33.9021 38.2891 35.5017 38.5492 36.515 38.6352C37.3478 38.7059 37.9316 38.6738 38.1679 38.6539L37.2475 37.1196C37.1147 37.0042 35.4736 35.6035 32.8418 34.3374C31.5945 33.7372 30.5741 33.3329 29.7228 33.1013C28.9518 32.8913 28.4593 32.8645 28.1163 32.8645C27.9113 32.8645 26.5604 33.2379 26.057 33.3819C26.0173 33.3932 25.9765 33.3692 25.9656 33.328C25.9547 33.2869 25.9778 33.2446 26.0175 33.2333C26.2047 33.1799 27.8538 32.7103 28.1163 32.7103C28.9551 32.7103 30.1801 32.8869 32.9042 34.1977C34.3425 34.8896 35.4745 35.6169 36.1709 36.1049C36.9266 36.6346 37.3482 37.0063 37.3522 37.01C37.358 37.0151 37.3632 37.0211 37.3672 37.0278L38.3571 38.678C38.3704 38.7002 38.372 38.7281 38.3611 38.7517C38.3501 38.7755 38.3285 38.7917 38.3034 38.7952C38.2855 38.7975 38.0058 38.8335 37.5109 38.8335Z" fill="black"/>
<path d="M36.1641 37.133C36.1614 37.133 36.1587 37.1328 36.1561 37.1326C36.1356 37.1302 34.0744 36.8887 31.8021 35.8421C31.1469 35.5404 30.1902 35.0552 29.3547 34.4574C28.8522 34.0979 28.6338 33.8702 28.6249 33.8607C28.5962 33.8304 28.5964 33.7816 28.6256 33.7518C28.6548 33.722 28.7018 33.7222 28.7305 33.7525C28.7412 33.7636 29.6199 34.6687 31.8622 35.7013C34.1123 36.7377 36.1516 36.977 36.1719 36.9793C36.2127 36.9839 36.2421 37.0218 36.2376 37.0641C36.2336 37.1037 36.2015 37.133 36.1641 37.133Z" fill="black"/>
<path d="M21.6372 33.1081C21.2031 33.5658 20.7456 33.5922 20.2649 33.1876L19.3271 15.7619L20.6994 15.6824L21.6372 33.1081Z" fill="#393F4F"/>
<path d="M20.9356 33.5488C20.7034 33.5488 20.4652 33.4473 20.227 33.2466C20.2107 33.233 20.2007 33.2128 20.1996 33.1911L19.2618 15.7654C19.2607 15.745 19.2674 15.7249 19.2806 15.7097C19.2937 15.6944 19.3122 15.6852 19.3318 15.684L20.7041 15.6045C20.7451 15.6022 20.7801 15.6345 20.7823 15.6771L21.7201 33.1028C21.7212 33.1245 21.7136 33.1456 21.6989 33.1611C21.4694 33.4029 21.228 33.5328 20.9813 33.5471C20.9662 33.5483 20.951 33.5488 20.9356 33.5488ZM20.3462 33.1479C20.7779 33.4977 21.1788 33.4745 21.5701 33.0769L20.6384 15.7626L19.4145 15.8336L20.3462 33.1479Z" fill="black"/>
<path d="M28.0149 16.7987L27.9554 13.3632C27.9488 11.8638 26.892 9.36614 25.4025 9.16316L16.0268 7.8866L14.8691 17.0357L22.4507 18.0681L24.2448 18.3125L26.039 18.5568C27.1102 18.7025 28.0205 17.8772 28.0149 16.7987Z" fill="#E0FE10"/>
<path d="M26.2893 18.6492C26.2059 18.6492 26.1221 18.6437 26.0381 18.6321L14.8683 17.1112C14.8275 17.1057 14.799 17.067 14.8044 17.0247L15.962 7.87564C15.9645 7.8553 15.9748 7.83704 15.9904 7.82455C16.006 7.81207 16.0258 7.80652 16.0452 7.80929L25.4208 9.08586C26.1148 9.18041 26.7851 9.76714 27.3086 10.7383C27.7552 11.5671 28.0348 12.5723 28.0384 13.3617L28.0979 16.7961C28.0979 16.7963 28.0979 16.7968 28.0979 16.797C28.1006 17.3278 27.8838 17.832 27.5027 18.1806C27.1711 18.4846 26.739 18.6492 26.2893 18.6492ZM14.9615 16.9683L26.0575 18.4793C26.5525 18.5468 27.0436 18.3959 27.4046 18.0653C27.7534 17.7462 27.9519 17.2846 27.9495 16.7984L27.89 13.3636C27.8864 12.5977 27.6141 11.621 27.1791 10.8135C26.6793 9.88573 26.0479 9.32652 25.4017 9.23844L16.0995 7.97181L14.9615 16.9683Z" fill="black"/>
<path d="M16.666 17.2868L13.0777 16.7983C12.0063 16.6525 11.3322 15.6115 11.606 14.5709L12.5184 11.2679C12.8979 9.82093 14.5401 7.69086 16.0296 7.8936C17.5191 8.09634 18.5756 10.594 18.5825 12.0936L18.642 15.5292C18.6478 16.6074 17.7375 17.4327 16.666 17.2868Z" fill="#393F4F"/>
<path d="M16.9156 17.3795C16.8322 17.3795 16.7485 17.3739 16.6644 17.3624L13.0761 16.8737C12.5386 16.8004 12.0637 16.4987 11.7732 16.0456C11.4917 15.6068 11.4077 15.0615 11.5423 14.5494L12.4548 11.2454C12.6545 10.4846 13.1746 9.58831 13.8124 8.90726C14.5596 8.10901 15.3532 7.72155 16.0472 7.8161C16.7411 7.91065 17.4114 8.49738 17.9349 9.46856C18.3815 10.2973 18.6612 11.3025 18.6647 12.092L18.7242 15.5264C18.7269 16.0581 18.5101 16.5623 18.129 16.9109C17.7974 17.2151 17.3653 17.3795 16.9156 17.3795ZM16.6838 17.2096C17.1788 17.2771 17.6699 17.1261 18.0309 16.7955C18.3797 16.4763 18.5785 16.0144 18.5758 15.5282L18.5163 12.0936C18.5127 11.3277 18.2404 10.351 17.8054 9.54346C17.3056 8.61575 16.6742 8.05653 16.0282 7.96845C15.382 7.88037 14.633 8.25187 13.9192 9.0143C13.2979 9.67778 12.7918 10.5484 12.5981 11.2865L11.6856 14.5908C11.5626 15.0589 11.6394 15.5583 11.8971 15.96C12.1638 16.3759 12.6006 16.6531 13.0955 16.7206L16.6838 17.2096Z" fill="black"/>
<path d="M16.7975 17.3002L13.3353 16.8288C12.3015 16.688 11.0986 17.1499 10.7351 17.8111L9.62021 19.9187C9.11412 20.8377 9.32828 22.4185 10.7656 22.6143C12.2028 22.8101 14.5926 21.5837 15.4715 20.7156L17.5242 18.7358C18.1568 18.1112 17.8313 17.441 16.7975 17.3002Z" fill="#F8F9FB"/>
<path d="M11.0949 22.7112C10.9801 22.7112 10.8698 22.7042 10.7644 22.6899C10.0201 22.5886 9.66283 22.1471 9.49414 21.7945C9.22048 21.2224 9.24856 20.4528 9.56411 19.8799L10.6784 17.7734C10.864 17.4357 11.2502 17.1423 11.7665 16.9463C12.2797 16.7514 12.8431 16.6823 13.3532 16.7519L16.8154 17.2232C17.3945 17.3021 17.7897 17.5483 17.8997 17.8987C17.9893 18.1842 17.877 18.5009 17.5835 18.7906L15.5302 20.7711C14.6783 21.6133 12.548 22.7112 11.0949 22.7112ZM12.9623 16.8804C12.0629 16.8804 11.116 17.2886 10.808 17.8488L9.69359 19.9553C9.40099 20.4868 9.37447 21.1979 9.62695 21.7261C9.7796 22.0451 10.1041 22.4448 10.7835 22.5373C11.4171 22.6235 12.3134 22.43 13.3071 21.9924C14.1661 21.6142 14.9789 21.1033 15.4284 20.6592L17.4817 18.6787C17.7308 18.433 17.8293 18.1727 17.7585 17.9468C17.6682 17.6595 17.3083 17.4461 16.796 17.3763L13.3338 16.9049C13.2124 16.8882 13.0878 16.8804 12.9623 16.8804Z" fill="black"/>
<path d="M23.213 6.56188L21.4043 6.31567L21.2398 7.61623L23.0485 7.86243L23.213 6.56188Z" fill="#F8F9FB"/>
<path d="M23.0493 7.94245C23.0462 7.94245 23.0428 7.94222 23.0395 7.94176L21.2306 7.69555C21.211 7.69278 21.1934 7.68238 21.1814 7.66619C21.1694 7.65001 21.164 7.62944 21.1667 7.60932L21.3312 6.30872C21.3365 6.26641 21.3739 6.23682 21.4145 6.24237L23.2234 6.48857C23.243 6.49135 23.2606 6.50175 23.2726 6.51793C23.2846 6.53411 23.29 6.55469 23.2873 6.5748L23.1229 7.87541C23.1179 7.91425 23.0861 7.94245 23.0493 7.94245ZM21.3238 7.55268L22.9854 7.77901L23.1307 6.63121L21.4691 6.40489L21.3238 7.55268Z" fill="black"/>
<path d="M26.049 13.7555L23.7031 13.436C23.5101 13.4096 23.3741 13.2261 23.3995 13.0259L23.4064 12.9704C23.4319 12.7702 23.6088 12.6292 23.8018 12.6555L26.1477 12.975C26.3407 13.0014 26.4766 13.1849 26.4512 13.3849L26.4443 13.4404C26.4189 13.6408 26.242 13.7818 26.049 13.7555Z" fill="#F8F9FB"/>
<path d="M26.1038 13.8343C26.0853 13.8343 26.0668 13.8332 26.0481 13.8306L23.7022 13.5112C23.5892 13.4957 23.4887 13.4356 23.4194 13.3419C23.3501 13.2483 23.32 13.132 23.3347 13.0148L23.3416 12.9593C23.3721 12.7173 23.587 12.5464 23.8201 12.5781L26.166 12.8976C26.279 12.9131 26.3795 12.9732 26.4488 13.0668C26.5181 13.1607 26.5482 13.2767 26.5335 13.3939L26.5266 13.4494C26.4985 13.6718 26.3146 13.8343 26.1038 13.8343ZM26.0673 13.6778C26.2195 13.6986 26.3592 13.587 26.3793 13.4293L26.3862 13.3738C26.3957 13.2973 26.3764 13.2217 26.3311 13.1607C26.2859 13.0997 26.2204 13.0604 26.1468 13.0504L23.8009 12.7309C23.6489 12.7104 23.509 12.8218 23.4889 12.9794L23.482 13.0349C23.4724 13.1114 23.4918 13.187 23.537 13.2481C23.5823 13.3091 23.6478 13.3484 23.7213 13.3583L26.0673 13.6778Z" fill="black"/>
<path d="M25.8322 15.4671L23.4863 15.1477C23.2933 15.1213 23.1573 14.9377 23.1827 14.7378L23.1896 14.6823C23.2151 14.4821 23.392 14.3411 23.585 14.3674L25.9309 14.6869C26.1239 14.7133 26.2598 14.8968 26.2344 15.097L26.2275 15.1525C26.2021 15.3522 26.0252 15.4933 25.8322 15.4671Z" fill="#F8F9FB"/>
<path d="M25.8872 15.5463C25.8687 15.5463 25.8502 15.5451 25.8313 15.5426L23.4854 15.2231C23.3724 15.2076 23.2719 15.1475 23.2026 15.0538C23.1333 14.9602 23.1032 14.8439 23.1179 14.7267L23.125 14.6713C23.1397 14.554 23.1979 14.4498 23.2882 14.3779C23.3786 14.306 23.4905 14.2748 23.6035 14.29L25.9494 14.6095C26.1827 14.6412 26.3474 14.8641 26.3169 15.1059L26.3098 15.1613C26.2817 15.3837 26.0978 15.5463 25.8872 15.5463ZM23.5476 14.4403C23.4867 14.4403 23.4279 14.4609 23.3789 14.4999C23.32 14.5469 23.2821 14.6148 23.2726 14.6911L23.2654 14.7466C23.2558 14.8229 23.2755 14.8987 23.3207 14.9598C23.3659 15.0208 23.4315 15.0601 23.505 15.07L25.8507 15.3895C26.0029 15.4101 26.1426 15.2987 26.1627 15.141L26.1698 15.0855C26.1896 14.9279 26.0822 14.7827 25.9302 14.7619L23.5843 14.4424C23.5718 14.4412 23.5596 14.4403 23.5476 14.4403Z" fill="black"/>
<path d="M35.3222 26.8146C37.5944 26.8146 39.4364 24.9037 39.4364 22.5466C39.4364 20.1894 37.5944 18.2786 35.3222 18.2786C33.05 18.2786 31.208 20.1894 31.208 22.5466C31.208 24.9037 33.05 26.8146 35.3222 26.8146Z" fill="#E2E2E2"/>
<path d="M36.0999 18.3651C36.1242 19.0062 36.0827 19.675 35.8768 20.126C35.3607 21.2562 34.558 21.6132 32.7231 22.5499C31.9716 22.9336 31.6639 23.6489 31.5625 24.36C31.8549 25.0064 32.2986 25.5642 32.8468 25.9845C32.9705 25.4472 33.2044 24.8494 33.6406 24.3494C34.7301 23.1001 36.393 24.29 38.3166 23.2786C38.8265 23.0106 39.1605 22.567 39.3762 22.0598C39.1725 20.2129 37.8328 18.7244 36.0999 18.3651Z" fill="#BABABA"/>
<path d="M6.19713 9.20254C8.08043 9.20254 9.60715 7.61875 9.60715 5.66505C9.60715 3.71135 8.08043 2.12756 6.19713 2.12756C4.31383 2.12756 2.78711 3.71135 2.78711 5.66505C2.78711 7.61875 4.31383 9.20254 6.19713 9.20254Z" fill="#BABABA"/>
<path d="M1.03597 8.80981C0.733123 8.80981 0.555959 8.74045 0.496013 8.59897C0.410439 8.39692 0.593175 8.10726 1.05469 7.71333C1.4654 7.36263 2.08982 6.93865 2.86021 6.48693C2.89586 6.46589 2.94132 6.47907 2.96138 6.51606C2.98166 6.55305 2.96896 6.60021 2.9333 6.62101C2.17027 7.06834 1.5532 7.48724 1.14896 7.83216C0.593175 8.30653 0.612562 8.49148 0.63195 8.53679C0.655349 8.59181 0.855689 8.84379 2.51212 8.39091C3.67026 8.0742 5.1522 7.51475 6.68517 6.81543C8.21814 6.11612 9.61718 5.3611 10.6249 4.68975C12.0661 3.72944 12.0226 3.40579 11.9992 3.35077C11.9803 3.30592 11.8635 3.16722 11.162 3.26801C10.6516 3.34129 9.947 3.52577 9.12424 3.80157C9.08524 3.81475 9.04335 3.79232 9.03065 3.75187C9.01794 3.71141 9.03956 3.66795 9.07856 3.65477C9.90934 3.37643 10.6227 3.18987 11.1415 3.1152C11.7249 3.03128 12.05 3.08815 12.1349 3.28858C12.2036 3.45041 12.1013 3.6661 11.8223 3.9479C11.5767 4.19596 11.2007 4.48909 10.7049 4.81945C9.69095 5.49518 8.28433 6.25414 6.74467 6.95669C5.20479 7.65924 3.71505 8.22146 2.54978 8.54025C1.97996 8.69607 1.51777 8.7853 1.17548 8.80565C1.12645 8.80819 1.07987 8.80981 1.03597 8.80981Z" fill="#8C8C8C"/>
<path d="M21.5284 6.3379L21.0449 6.27209L20.1657 13.223L20.6492 13.2888L21.5284 6.3379Z" fill="#F8F9FB"/>
<path d="M20.6417 13.365C20.6386 13.365 20.6353 13.3648 20.6322 13.3643L20.1486 13.2984C20.1078 13.2929 20.0793 13.2543 20.0846 13.212L20.9642 6.26114C20.9667 6.2408 20.9769 6.22253 20.9925 6.21005C21.0081 6.19757 21.0279 6.19202 21.0473 6.19479L21.5309 6.26068C21.5717 6.26623 21.6002 6.30483 21.5949 6.34714L20.7153 13.298C20.7128 13.3183 20.7026 13.3366 20.687 13.3491C20.6738 13.3595 20.658 13.365 20.6417 13.365ZM20.2415 13.1558L20.5778 13.2016L21.438 6.40354L21.1017 6.35777L20.2415 13.1558Z" fill="black"/>
<path d="M21.3381 14.3089C21.7337 13.9937 21.8081 13.4055 21.5043 12.9951C21.2005 12.5847 20.6334 12.5075 20.2378 12.8227C19.8422 13.1379 19.7678 13.7261 20.0716 14.1365C20.3755 14.5469 20.9425 14.6241 21.3381 14.3089Z" fill="#F8F9FB"/>
<path d="M20.797 14.584C20.7542 14.584 20.711 14.581 20.6677 14.5752C20.4088 14.54 20.1788 14.4023 20.0197 14.1875C19.8608 13.9727 19.7919 13.7064 19.8258 13.438C19.8597 13.1694 19.9925 12.9308 20.1995 12.7658C20.4066 12.6007 20.6633 12.5293 20.922 12.5646C21.4564 12.6375 21.8341 13.1477 21.7639 13.702C21.7301 13.9707 21.5972 14.2092 21.3902 14.3743C21.2177 14.5116 21.0109 14.584 20.797 14.584ZM20.7932 12.71C20.6118 12.71 20.4364 12.7715 20.29 12.888C20.1144 13.0279 20.0019 13.2304 19.9731 13.4581C19.9444 13.6858 20.0028 13.9115 20.1376 14.0936C20.2724 14.2758 20.4676 14.3926 20.6871 14.4224C20.9066 14.4522 21.1241 14.3916 21.2997 14.2518C21.4753 14.1119 21.5879 13.9094 21.6166 13.6817C21.6761 13.2117 21.3559 12.7789 20.9026 12.7172C20.8663 12.7124 20.8295 12.71 20.7932 12.71Z" fill="black"/>
</svg>
