<svg width="20" height="20" viewBox="0 0 20 20" fill="none" xmlns="http://www.w3.org/2000/svg">
<path d="M19.6484 17.875C18.2206 15.4065 16.0203 13.6365 13.4525 12.7975C14.7226 12.0414 15.7094 10.8892 16.2614 9.51792C16.8134 8.14665 16.8999 6.63211 16.5078 5.20688C16.1157 3.78165 15.2666 2.52454 14.0909 1.6286C12.9151 0.732664 11.4778 0.247437 9.99964 0.247437C8.52146 0.247437 7.08414 0.732664 5.90842 1.6286C4.73269 2.52454 3.88358 3.78165 3.49146 5.20688C3.09935 6.63211 3.18592 8.14665 3.73788 9.51792C4.28984 10.8892 5.27668 12.0414 6.54683 12.7975C3.97902 13.6356 1.77871 15.4056 0.350893 17.875C0.298533 17.9604 0.263803 18.0554 0.248752 18.1544C0.233701 18.2534 0.238634 18.3544 0.26326 18.4515C0.287886 18.5486 0.331707 18.6397 0.392136 18.7196C0.452565 18.7995 0.528379 18.8664 0.615104 18.9165C0.70183 18.9666 0.79771 18.9988 0.897088 19.0113C0.996466 19.0237 1.09733 19.0161 1.19373 18.989C1.29012 18.9618 1.3801 18.9156 1.45835 18.8531C1.5366 18.7906 1.60154 18.713 1.64933 18.625C3.41558 15.5725 6.53746 13.75 9.99964 13.75C13.4618 13.75 16.5837 15.5725 18.35 18.625C18.3977 18.713 18.4627 18.7906 18.5409 18.8531C18.6192 18.9156 18.7092 18.9618 18.8056 18.989C18.902 19.0161 19.0028 19.0237 19.1022 19.0113C19.2016 18.9988 19.2975 18.9666 19.3842 18.9165C19.4709 18.8664 19.5467 18.7995 19.6072 18.7196C19.6676 18.6397 19.7114 18.5486 19.736 18.4515C19.7607 18.3544 19.7656 18.2534 19.7505 18.1544C19.7355 18.0554 19.7008 17.9604 19.6484 17.875ZM4.74964 6.99999C4.74964 5.96164 5.05755 4.9466 5.63443 4.08324C6.21131 3.21989 7.03124 2.54698 7.99056 2.14962C8.94987 1.75226 10.0055 1.64829 11.0239 1.85086C12.0423 2.05344 12.9777 2.55345 13.712 3.28768C14.4462 4.0219 14.9462 4.95736 15.1488 5.97576C15.3513 6.99416 15.2474 8.04976 14.85 9.00908C14.4527 9.96839 13.7797 10.7883 12.9164 11.3652C12.053 11.9421 11.038 12.25 9.99964 12.25C8.60771 12.2485 7.27322 11.6949 6.28898 10.7107C5.30473 9.72641 4.75113 8.39192 4.74964 6.99999Z" fill="#6C737F"/>
</svg>
