<svg width="41" height="25" viewBox="0 0 41 25" fill="none" xmlns="http://www.w3.org/2000/svg">
<path d="M22.736 1.024L10.768 24H4.368L0.56 1.024H6.416L8.624 17.152L16.368 1.024H22.736ZM39.642 16.64C39.642 18.1973 39.258 19.552 38.49 20.704C37.7433 21.856 36.6767 22.752 35.29 23.392C33.9033 24.0107 32.25 24.32 30.33 24.32C27.3647 24.32 25.0287 23.5947 23.322 22.144C21.6367 20.672 20.7833 18.6453 20.762 16.064H26.522C26.522 17.1307 26.906 17.9947 27.674 18.656C28.442 19.3173 29.4447 19.648 30.682 19.648C31.3433 19.648 31.898 19.5733 32.346 19.424C32.794 19.2533 33.1353 19.008 33.37 18.688C33.626 18.368 33.754 17.9947 33.754 17.568C33.754 17.0133 33.5727 16.5867 33.21 16.288C32.8687 15.9893 32.2287 15.7013 31.29 15.424L27.706 14.368C26.0207 13.8773 24.7193 13.088 23.802 12C22.906 10.912 22.458 9.62133 22.458 8.128C22.458 6.63467 22.8313 5.344 23.578 4.256C24.346 3.14667 25.4233 2.28267 26.81 1.664C28.1967 1.04533 29.8073 0.735998 31.642 0.735998C33.4127 0.735998 34.9487 1.06667 36.25 1.728C37.5513 2.38933 38.5647 3.328 39.29 4.544C40.0367 5.73867 40.41 7.15733 40.41 8.8H34.65C34.65 8.11733 34.5007 7.52 34.202 7.008C33.9247 6.496 33.53 6.09067 33.018 5.792C32.5273 5.49333 31.9513 5.344 31.29 5.344C30.3513 5.344 29.6153 5.54667 29.082 5.952C28.5487 6.336 28.282 6.86933 28.282 7.552C28.282 8.04267 28.4527 8.45867 28.794 8.8C29.1567 9.14133 29.7007 9.41867 30.426 9.632L34.202 10.72C35.9727 11.232 37.3167 12 38.234 13.024C39.1727 14.0267 39.642 15.232 39.642 16.64Z" fill="#102A56"/>
</svg>
