<svg width="74" height="74" viewBox="0 0 74 74" fill="none" xmlns="http://www.w3.org/2000/svg">
<path fill-rule="evenodd" clip-rule="evenodd" d="M19.0605 31.2545C17.569 31.1326 16.3981 31.0708 15.4603 31.1297C14.5216 31.1887 13.8027 31.3694 13.2231 31.7429C12.6421 32.1173 12.2172 32.6749 11.8465 33.4567C11.4773 34.2354 11.1569 35.2473 10.7906 36.5412C9.67765 39.8171 7.56761 48.9572 6.67459 57.3049C6.39971 59.8744 7.91659 62.107 10.3885 64.017C12.8627 65.9289 16.3238 67.5427 20.0148 68.8772C27.3988 71.547 35.7458 73.1136 39.0732 73.7006L39.0761 73.7011C39.6138 73.785 40.4582 73.8054 41.253 73.5927C41.625 73.4932 41.9914 73.3409 42.3104 73.1167C43.223 73.138 43.902 73.119 44.418 73.0555C44.9497 72.99 45.3193 72.8759 45.5957 72.7006C45.8753 72.5233 46.046 72.292 46.1945 72.0205C46.2652 71.8912 46.3324 71.75 46.4031 71.6012L46.4032 71.601L46.4112 71.5841C46.4856 71.4278 46.5653 71.2609 46.6613 71.0809L46.6656 71.0729L46.6688 71.0645C47.7524 68.2471 48.6635 65.4535 49.4253 62.7876L49.1111 62.8191C48.359 65.4401 47.4621 68.1837 46.3982 70.9508C46.3005 71.1344 46.2195 71.3041 46.1463 71.4581L46.1399 71.4715L46.1398 71.4717C46.0676 71.6235 46.0037 71.7579 45.9371 71.8797C45.8013 72.1279 45.6603 72.3122 45.4386 72.4528C45.2138 72.5954 44.8926 72.7014 44.3821 72.7642C43.9499 72.8175 43.3899 72.8389 42.6507 72.8294C42.861 72.6158 43.0348 72.3566 43.1541 72.0435C43.1922 71.9434 43.2395 71.8146 43.2949 71.6595C43.4433 71.6729 43.6365 71.686 43.8311 71.6905C44.0767 71.6962 44.342 71.689 44.5197 71.6446L44.5476 71.6376L44.5708 71.6205C44.775 71.4708 44.9912 71.2154 45.2152 70.8791C45.4408 70.5402 45.6809 70.1092 45.9302 69.5982C46.4289 68.5761 46.9691 67.2251 47.5083 65.6321C47.8021 64.764 48.0959 63.8233 48.3826 62.8239L48.0815 62.8096C47.802 63.7798 47.5162 64.6936 47.2304 65.538C46.6937 67.1236 46.158 68.4622 45.6665 69.4696C45.4207 69.9733 45.187 70.392 44.971 70.7164C44.7636 71.0278 44.5783 71.2434 44.4207 71.3662C44.2831 71.3949 44.0676 71.4025 43.8379 71.3971C43.6817 71.3935 43.526 71.3842 43.396 71.3737C43.9386 69.8228 45.0356 66.4678 46.1355 62.6696L45.8402 62.6342C44.7023 66.5601 43.5701 70.0043 43.0569 71.4533C42.985 71.6564 42.9254 71.8196 42.8799 71.939C42.5902 72.6997 41.9232 73.1097 41.1772 73.3093C40.4313 73.5089 39.6303 73.4904 39.1226 73.4114C35.7964 72.8246 27.4721 71.2615 20.1145 68.6013C16.434 67.2706 13.0063 65.6691 10.5679 63.7849C8.12713 61.8989 6.70761 59.7546 6.96635 57.3361C7.85791 49.002 9.96539 39.8802 11.0697 36.632L11.0698 36.6321L11.0719 36.6247C11.4387 35.3288 11.7538 34.3372 12.1117 33.5824C12.4684 32.8301 12.8626 32.3242 13.382 31.9895C13.9027 31.654 14.5653 31.48 15.4787 31.4226C16.3932 31.3651 17.5452 31.4251 19.0366 31.547C22.0062 31.7896 28.5967 33.1803 34.9071 34.7214C38.06 35.4914 41.139 36.2979 43.6553 37.0156C46.1758 37.7346 48.1208 38.3615 49.0135 38.7716C50.8117 39.5978 51.7079 40.3637 52.1624 41.1679C52.6177 41.9734 52.6447 42.8403 52.6447 43.9198C52.6447 45.0265 52.2768 48.8478 51.2399 54.0434H51.4838L51.541 54.0339C52.5713 48.8544 52.9381 45.042 52.9381 43.9198C52.9381 42.8476 52.9162 41.9051 52.4179 41.0235C51.9188 40.1405 50.9567 39.3415 49.1361 38.505C48.2194 38.0838 46.2522 37.4513 43.7358 36.7335C41.2151 36.0145 38.1323 35.207 34.9768 34.4363C28.6703 32.8962 22.0571 31.4994 19.0605 31.2545ZM50.3628 54.0434C50.375 53.9701 50.3872 53.8968 50.3993 53.8234C50.4895 53.2763 50.5773 52.7504 50.6617 52.2447L50.6619 52.244C50.9204 50.6952 51.1473 49.3361 51.3137 48.1409C51.5343 46.5556 51.65 45.2483 51.5908 44.1577C51.5314 43.0655 51.2961 42.1814 50.8072 41.4496C50.3181 40.7174 49.5848 40.1521 48.5552 39.68L48.5554 39.6798L48.5471 39.6765C45.5052 38.4991 39.1152 36.6878 32.6956 35.1715C26.28 33.6562 19.8082 32.4291 16.6096 32.4291C15.8114 32.4291 15.2338 32.4826 14.8488 32.5839C14.6568 32.6344 14.5018 32.6996 14.3904 32.7845C14.2757 32.8719 14.2013 32.9858 14.1932 33.1241C14.1854 33.2561 14.2397 33.3826 14.3199 33.4968C14.4009 33.6123 14.5179 33.729 14.6603 33.8459C14.9455 34.0799 15.3534 34.3315 15.8426 34.5901C17.799 35.6247 21.16 36.8261 23.6122 37.5096C24.3353 37.7111 25.2978 37.982 26.4215 38.2982L26.4215 38.2982C32.3692 39.9721 42.8322 42.9168 46.2165 43.5762C47.2024 43.7682 47.8537 44.0954 48.2818 44.4891C48.7083 44.8814 48.9239 45.3496 49.0218 45.8446C49.1203 46.3428 49.0994 46.8666 49.0513 47.3654C49.0364 47.5205 49.0185 47.6751 49.0011 47.8261L49.001 47.8262C48.9638 48.148 48.9286 48.4528 48.9281 48.7081C48.8189 50.1687 48.5018 52.0156 48.0651 54.0301L48.1584 54.0434H48.3625C48.7965 52.0348 49.112 50.1898 49.2211 48.7245L49.2215 48.7246V48.7136C49.2215 48.4742 49.2538 48.1958 49.2901 47.8826C49.308 47.7279 49.3269 47.5647 49.3434 47.3936C49.3922 46.8869 49.4167 46.3287 49.3097 45.7877C49.202 45.2436 48.9611 44.7153 48.4804 44.2732C48.0013 43.8325 47.2948 43.4873 46.2726 43.2882C42.902 42.6315 32.4601 39.6928 26.509 38.018L26.5089 38.018C25.3826 37.701 24.4172 37.4293 23.691 37.2269C21.2486 36.5462 17.91 35.3515 15.9797 34.3308C15.4972 34.0756 15.1093 33.8347 14.8465 33.6191C14.715 33.5111 14.62 33.4136 14.5601 33.3283C14.4993 33.2417 14.4837 33.1808 14.4861 33.1414C14.488 33.1084 14.5038 33.067 14.5683 33.0178C14.6361 32.9661 14.7493 32.9135 14.9235 32.8676C15.2712 32.7761 15.8185 32.7225 16.6096 32.7225C19.7683 32.7225 26.2068 33.9404 32.6282 35.4571C39.0425 36.9721 45.4132 38.7787 48.437 39.9486C49.4316 40.4052 50.1137 40.9397 50.5632 41.6126C51.0136 42.2867 51.2402 43.1141 51.2978 44.1737C51.3554 45.2348 51.2431 46.5193 51.023 48.1005C50.8573 49.2915 50.6313 50.6451 50.3729 52.1929L50.3729 52.1931L50.3724 52.1959C50.288 52.7014 50.2002 53.2276 50.1098 53.7756C50.0951 53.865 50.0802 53.9543 50.0652 54.0434H50.3628Z" fill="#D9D9D9"/>
<path d="M11.6246 34.2312L12.6027 32.3729L13.8742 31.4926L14.95 31.297L16.4171 31.1992L17.982 31.297L20.1337 31.4926L21.992 31.786L26.0998 32.5685L32.5549 33.9378L37.543 35.2092L42.5311 36.4807L46.1499 37.5566L48.7906 38.4368L50.8445 39.6105L52.0182 40.6863L52.605 41.86L52.8006 43.2293V44.5007L52.605 46.2612L52.5072 47.4349L52.2138 49.2932L51.9204 51.0537L51.5292 53.1076L51.4314 53.6944L49.1818 63.0837L48.6928 64.7464L47.8126 67.3871L47.0301 69.6367L46.5411 70.9081L46.0521 71.7884L45.8565 72.1796L45.4652 72.5708L44.6828 72.8642L43.8025 72.962H42.7267H42.2377L41.6508 73.3533L39.8903 73.6467L37.9342 73.3533L33.8264 72.5708L27.2735 71.0059L22.481 69.6367L18.7644 68.2674L15.5368 66.8981L13.2873 65.7244L10.8422 64.1596L9.17951 62.7903L7.90804 61.3232L7.02779 59.6605L6.73438 57.9978L7.1256 53.89L8.29926 47.3371L9.47292 41.86L10.94 36.4807L11.6246 34.2312Z" fill="#E0FE10"/>
<path d="M15.3369 32.7682C21.303 32.0834 48.7863 39.3199 49.6674 40.8828C49.9279 41.0791 50.5859 41.8237 51.1336 43.2321C51.916 45.9707 50.0251 55.0666 48.9819 59.2722C47.0258 67.6834 45.4609 70.1286 45.0697 70.8132L44.385 71.6934C43.896 71.7913 42.9571 71.8891 43.1136 71.4978C45.4609 66.3142 49.2753 48.6114 49.0797 46.4597C48.9232 44.7383 47.254 43.9168 46.4389 43.7212C42.0748 43.0665 20.7164 36.8735 18.7562 35.9933C18.1066 35.7016 11.6221 33.3551 15.3369 32.7682Z" fill="#393F4F"/>
<path fill-rule="evenodd" clip-rule="evenodd" d="M18.9028 31.5124C17.4112 31.3905 16.2415 31.3288 15.3051 31.3876C14.3679 31.4465 13.6524 31.6268 13.0763 31.998C12.4991 32.37 12.076 32.9246 11.7062 33.7046C11.3376 34.4818 11.0175 35.4926 10.6512 36.7867C9.53872 40.0608 7.42876 49.2 6.53581 57.5471C6.2619 60.1075 7.77293 62.3348 10.2429 64.2434C12.715 66.1536 16.1742 67.7667 19.8644 69.1009C27.247 71.7702 35.5927 73.3366 38.9199 73.9236L38.9225 73.924C39.4584 74.0076 40.3002 74.0279 41.0922 73.816C41.4646 73.7163 41.8307 73.5638 42.1487 73.3392C43.0639 73.3607 43.7437 73.3418 44.2595 73.2783C44.7899 73.2129 45.1566 73.0993 45.4299 72.926C45.706 72.7509 45.8749 72.5224 46.0227 72.2524C46.0932 72.1235 46.1601 71.9827 46.231 71.8337L46.239 71.8168C46.3133 71.6606 46.3932 71.4933 46.4894 71.3129L46.4932 71.3059L46.496 71.2985C47.5647 68.5198 48.4656 65.7643 49.2209 63.1318L48.9444 63.1595C48.1976 65.7525 47.3093 68.464 46.2579 71.1984C46.1602 71.382 46.0793 71.5517 46.0059 71.706L45.9993 71.7198L45.9992 71.7199C45.9272 71.8715 45.8631 72.0062 45.7962 72.1285C45.6597 72.378 45.5169 72.5652 45.2917 72.708C45.0638 72.8525 44.7397 72.959 44.2279 73.0221C43.7865 73.0764 43.2127 73.0977 42.4523 73.0868C42.6743 72.8692 42.8575 72.6026 42.9813 72.2775C43.0205 72.1746 43.0694 72.0412 43.127 71.8799C43.9846 71.9384 44.7887 71.5522 45.2374 70.8028C46.0163 69.5019 46.9548 67.1845 47.8519 64.2637C47.9621 63.9046 48.0718 63.5364 48.1805 63.1596L47.9155 63.147C47.8127 63.5018 47.7092 63.849 47.6051 64.1879C46.7098 67.103 45.7785 69.3965 45.016 70.6702C44.6331 71.3096 43.9564 71.6529 43.2167 71.6261C43.7524 70.0967 44.8395 66.7747 45.9341 63.0021L45.6743 62.9709C44.5452 66.8591 43.4265 70.2614 42.9172 71.6995C42.8453 71.9026 42.7857 72.066 42.7401 72.1856C42.4475 72.9536 41.7744 73.3662 41.0254 73.5666C40.2767 73.767 39.473 73.7484 38.9636 73.6691C35.6374 73.0823 27.3115 71.519 19.9522 68.8582C16.2711 67.5272 12.8414 65.925 10.4008 64.0391C7.95816 62.1517 6.53279 60.0021 6.79249 57.5745C7.68416 49.2394 9.79187 40.1163 10.8966 36.8666L10.8968 36.8667L10.8986 36.8602C11.2654 35.5643 11.5808 34.5714 11.9394 33.8152C12.297 33.061 12.6931 32.5521 13.2161 32.215C13.7404 31.8772 14.4064 31.7028 15.3213 31.6453C16.2371 31.5877 17.3903 31.6478 18.8818 31.7697C21.8529 32.0125 28.4448 33.4035 34.755 34.9446C37.908 35.7146 40.9873 36.5212 43.5038 37.239C46.024 37.9579 47.9704 38.5851 48.8646 38.9959C50.6641 39.8227 51.5643 40.5906 52.0215 41.3995C52.4794 42.2096 52.506 43.0811 52.506 44.1601C52.506 45.2608 52.1428 49.0408 51.1211 54.1859H51.3272L51.3862 54.176C52.402 49.0459 52.7642 45.2742 52.7642 44.1601C52.7642 43.0874 52.7419 42.1495 52.2462 41.2725C51.7498 40.3942 50.7917 39.5972 48.9724 38.7613C48.0571 38.3408 46.0913 37.7086 43.5746 36.9907C41.0542 36.2718 37.9717 35.4644 34.8162 34.6938C28.5096 33.1536 21.8978 31.7572 18.9028 31.5124ZM51.3454 54.3812L51.3434 54.3815H51.3353H51.0821C50.5651 56.9599 49.884 59.8725 49.0024 62.9571L49.2787 62.9294C50.1543 59.8546 50.8313 56.9518 51.3454 54.3812ZM48.236 62.9664C48.9664 60.4079 49.6501 57.4696 50.1721 54.3815H49.9103C49.3868 57.4679 48.7018 60.4026 47.9711 62.9538L48.236 62.9664ZM45.9892 62.8117C46.1132 62.3826 46.2372 61.9481 46.3604 61.51C47.0275 59.1373 47.672 56.6571 48.1669 54.3815H48.0099H47.996L47.9961 54.3805L47.9057 54.3676C47.4141 56.6221 46.7753 59.0809 46.1119 61.4402C45.985 61.8914 45.8572 62.3389 45.7295 62.7805L45.9892 62.8117ZM47.9473 54.1759L48.0169 54.1859H48.2092C48.6326 52.2144 48.9399 50.4049 49.0472 48.9635L49.0476 48.9635V48.9539C49.0476 48.7135 49.08 48.4333 49.1164 48.1195C49.1343 47.965 49.1531 47.8023 49.1695 47.6322C49.2183 47.126 49.2425 46.5699 49.136 46.0314C49.029 45.4902 48.7896 44.9656 48.3122 44.5265C47.8361 44.0886 47.1329 43.7445 46.1129 43.5458C42.7415 42.8889 32.2983 39.9499 26.3474 38.2751C25.2212 37.9582 24.2559 37.6865 23.5299 37.4842C21.087 36.8033 17.747 35.6082 15.8152 34.5867C15.3322 34.3313 14.9431 34.0898 14.679 33.873C14.5468 33.7645 14.4505 33.6659 14.3893 33.5787C14.3274 33.4905 14.3095 33.4256 14.3121 33.3807C14.3145 33.3413 14.3337 33.2956 14.4012 33.2441C14.4717 33.1904 14.5874 33.137 14.7627 33.0909C15.1126 32.9988 15.6617 32.9451 16.4533 32.9451C19.6144 32.9451 26.0549 34.1637 32.4759 35.6802C38.8907 37.1954 45.2628 39.0023 48.2875 40.1726C49.2844 40.6302 49.9696 41.1665 50.4216 41.8431C50.8743 42.5206 51.1014 43.3515 51.1591 44.413C51.2168 45.4759 51.1043 46.7618 50.8842 48.3432C50.7184 49.5345 50.4924 50.8884 50.234 52.4362C50.1494 52.9426 50.0614 53.4698 49.9709 54.0188C49.9617 54.0745 49.9525 54.1302 49.9432 54.1859H50.2049C50.2118 54.1442 50.2188 54.1025 50.2256 54.0608C50.3158 53.5138 50.4036 52.9879 50.488 52.4823L50.4881 52.4817L50.4881 52.4816C50.7467 50.9327 50.9736 49.5739 51.1399 48.3788C51.3605 46.7938 51.476 45.4877 51.4168 44.399C51.3576 43.3087 51.1228 42.428 50.6362 41.6997C50.1495 40.971 49.4191 40.4075 48.3916 39.9363L48.3917 39.9361L48.3844 39.9333C45.3437 38.7563 38.9547 36.9452 32.5352 35.429C26.1193 33.9136 19.6495 32.687 16.4533 32.687C15.6555 32.687 15.0797 32.7405 14.697 32.8412C14.506 32.8915 14.3535 32.9559 14.2448 33.0388C14.1331 33.1239 14.0622 33.2334 14.0545 33.3655C14.047 33.4918 14.099 33.6144 14.178 33.727C14.2578 33.8406 14.3735 33.9562 14.5152 34.0725C14.799 34.3055 15.2058 34.5564 15.6945 34.8149C17.6493 35.8485 21.009 37.0496 23.4606 37.7329C24.1839 37.9345 25.1466 38.2054 26.2704 38.5217L26.2704 38.5217C32.2183 40.1956 42.6801 43.1399 46.0636 43.7991C47.0517 43.9916 47.7063 44.3199 48.1374 44.7165C48.5672 45.1118 48.7843 45.5835 48.8828 46.0815C48.9818 46.5822 48.9607 47.1081 48.9126 47.6074C48.8975 47.7634 48.8796 47.9186 48.8621 48.0697C48.8249 48.3912 48.7899 48.6946 48.7894 48.949C48.682 50.387 48.3732 52.1987 47.9473 54.1759Z" fill="black"/>
<path d="M37.5867 53.2572C38.1189 52.2264 39.3097 51.9733 44.1396 53.5506C46.4775 54.3141 49.5839 54.3119 51.2419 54.2562L51.5697 52.7681C51.8305 52.9312 52.3521 53.355 52.3521 53.7462C52.4499 56.2891 51.2763 63.0377 49.3202 63.0377C43.9409 63.3311 36.9983 60.2013 36.9983 60.2013C34.796 59.1711 36.3833 55.588 37.5867 53.2572Z" fill="#E0FE10"/>
<path d="M51.7684 54.2353C51.6159 54.2422 51.4392 54.2496 51.2419 54.2562M51.2419 54.2562C49.5839 54.3119 46.4775 54.3141 44.1396 53.5506C39.3097 51.9733 38.1189 52.2264 37.5867 53.2572C36.3833 55.588 34.796 59.1711 36.9983 60.2013C36.9983 60.2013 43.9409 63.3311 49.3202 63.0377C51.2763 63.0377 52.4499 56.2891 52.3521 53.7462C52.3521 53.355 51.8305 52.9312 51.5697 52.7681L51.2419 54.2562Z" stroke="black" stroke-width="0.293416"/>
<path d="M43.0092 57.1969C43.0092 58.4816 41.9787 59.5205 40.7108 59.5205C39.4428 59.5205 38.4123 58.4816 38.4123 57.1969C38.4123 55.9122 39.4428 54.8733 40.7108 54.8733C41.9787 54.8733 43.0092 55.9122 43.0092 57.1969Z" stroke="black" stroke-width="0.293416"/>
<path d="M41.8334 57.1956C41.8334 57.8274 41.3282 58.3363 40.7088 58.3363C40.0895 58.3363 39.5842 57.8274 39.5842 57.1956C39.5842 56.5639 40.0895 56.0549 40.7088 56.0549C41.3282 56.0549 41.8334 56.5639 41.8334 57.1956Z" fill="#393F4F" stroke="black" stroke-width="0.293416"/>
<path d="M51.7346 8.99808C51.7346 13.895 47.7213 17.8671 42.7678 17.8671C37.8142 17.8671 33.8009 13.895 33.8009 8.99808C33.8009 4.10117 37.8142 0.12907 42.7678 0.12907C47.7213 0.12907 51.7346 4.10117 51.7346 8.99808Z" fill="white" stroke="black" stroke-width="0.25814"/>
<path d="M50.1751 8.99765C50.1751 13.03 46.8628 16.3018 42.7732 16.3018C38.6836 16.3018 35.3713 13.03 35.3713 8.99765C35.3713 4.96528 38.6836 1.69352 42.7732 1.69352C46.8628 1.69352 50.1751 4.96528 50.1751 8.99765Z" fill="white" stroke="black" stroke-width="0.25814"/>
<path d="M31.0014 16.4306C31.0014 21.6542 26.8104 25.8865 21.6434 25.8865C16.4763 25.8865 12.2853 21.6542 12.2853 16.4306C12.2853 11.207 16.4763 6.97477 21.6434 6.97477C26.8104 6.97477 31.0014 11.207 31.0014 16.4306Z" fill="white" stroke="black" stroke-width="0.25814"/>
<path d="M29.246 16.4318C29.246 20.6834 25.843 24.1272 21.6485 24.1272C17.454 24.1272 14.0509 20.6834 14.0509 16.4318C14.0509 12.1803 17.454 8.73649 21.6485 8.73649C25.843 8.73649 29.246 12.1803 29.246 16.4318Z" fill="white" stroke="black" stroke-width="0.25814"/>
<path d="M20.6484 34.6348C24.9508 34.9216 32.867 35.9685 43.881 40.4429" stroke="white" stroke-width="0.344186" stroke-linecap="round" stroke-linejoin="round"/>
<path d="M44.6967 32.4697C44.6967 37.6932 40.5057 41.9255 35.3387 41.9255C30.1716 41.9255 25.9806 37.6932 25.9806 32.4697C25.9806 27.2461 30.1716 23.0138 35.3387 23.0138C40.5057 23.0138 44.6967 27.2461 44.6967 32.4697Z" fill="white" stroke="black" stroke-width="0.25814"/>
<path d="M42.9335 32.4709C42.9335 36.7225 39.5305 40.1662 35.336 40.1662C31.1415 40.1662 27.7384 36.7225 27.7384 32.4709C27.7384 28.2193 31.1415 24.7756 35.336 24.7756C39.5305 24.7756 42.9335 28.2193 42.9335 32.4709Z" fill="white" stroke="black" stroke-width="0.25814"/>
<path d="M67.392 25.4306C67.392 30.6542 63.201 34.8865 58.034 34.8865C52.8669 34.8865 48.6759 30.6542 48.6759 25.4306C48.6759 20.207 52.8669 15.9748 58.034 15.9748C63.201 15.9748 67.392 20.207 67.392 25.4306Z" fill="white" stroke="black" stroke-width="0.25814"/>
<path d="M65.6288 25.4299C65.6288 29.6814 62.2258 33.1252 58.0313 33.1252C53.8368 33.1252 50.4338 29.6814 50.4338 25.4299C50.4338 21.1783 53.8368 17.7345 58.0313 17.7345C62.2258 17.7345 65.6288 21.1783 65.6288 25.4299Z" fill="white" stroke="black" stroke-width="0.25814"/>
</svg>
