<svg width="18" height="24" viewBox="0 0 18 24" fill="none" xmlns="http://www.w3.org/2000/svg">
<path d="M17.25 18.6234V22.5C17.25 22.6989 17.171 22.8897 17.0303 23.0303C16.8897 23.171 16.6989 23.25 16.5 23.25C16.3011 23.25 16.1103 23.171 15.9697 23.0303C15.829 22.8897 15.75 22.6989 15.75 22.5V18.6234C15.7465 17.6608 15.5449 16.7091 15.1579 15.8277C14.7708 14.9463 14.2065 14.1539 13.5 13.5V18.9703C13.4999 19.1317 13.4477 19.2888 13.3512 19.4181C13.2546 19.5475 13.119 19.6423 12.9643 19.6884C12.8096 19.7345 12.6442 19.7295 12.4926 19.6741C12.341 19.6187 12.2113 19.5159 12.1228 19.3809L11.1216 17.8519C11.1141 17.8406 11.1066 17.8284 11.1 17.8162C10.9529 17.5565 10.7087 17.3659 10.4211 17.2863C10.1334 17.2066 9.82595 17.2445 9.56625 17.3916C9.30654 17.5386 9.1159 17.7828 9.03626 18.0705C8.95661 18.3581 8.99449 18.6656 9.14156 18.9253L11.2162 22.0931C11.3252 22.2596 11.3635 22.4625 11.3228 22.6572C11.2821 22.8519 11.1657 23.0225 10.9992 23.1314C10.8328 23.2403 10.6298 23.2786 10.4351 23.2379C10.2404 23.1972 10.0698 23.0808 9.96094 22.9144L7.87406 19.7269L7.85156 19.6912C7.52852 19.1376 7.41919 18.485 7.54419 17.8563C7.66919 17.2277 8.01989 16.6665 8.53014 16.2786C9.0404 15.8906 9.67495 15.7028 10.3141 15.7505C10.9533 15.7982 11.553 16.0781 12 16.5375V6H10.5C10.3011 6 10.1103 5.92098 9.96967 5.78033C9.82902 5.63968 9.75 5.44891 9.75 5.25C9.75 5.05109 9.82902 4.86032 9.96967 4.71967C10.1103 4.57902 10.3011 4.5 10.5 4.5H12C12.3978 4.5 12.7794 4.65803 13.0607 4.93934C13.342 5.22064 13.5 5.60217 13.5 6V11.5894C14.6512 12.3673 15.5946 13.4149 16.2482 14.6409C16.9018 15.8669 17.2458 17.2341 17.25 18.6234ZM3.75 5.25C3.75 5.05109 3.67098 4.86032 3.53033 4.71967C3.38968 4.57902 3.19891 4.5 3 4.5H1.5C1.10218 4.5 0.720644 4.65803 0.43934 4.93934C0.158035 5.22064 0 5.60217 0 6V18.75C0 18.9489 0.0790178 19.1397 0.21967 19.2803C0.360322 19.421 0.551088 19.5 0.75 19.5C0.948912 19.5 1.13968 19.421 1.28033 19.2803C1.42098 19.1397 1.5 18.9489 1.5 18.75V6H3C3.19891 6 3.38968 5.92098 3.53033 5.78033C3.67098 5.63968 3.75 5.44891 3.75 5.25ZM10.2806 9.21937C10.211 9.14964 10.1283 9.09432 10.0372 9.05658C9.94616 9.01884 9.84856 8.99941 9.75 8.99941C9.65144 8.99941 9.55384 9.01884 9.4628 9.05658C9.37175 9.09432 9.28903 9.14964 9.21937 9.21937L7.5 10.9397V1.5C7.5 1.30109 7.42098 1.11032 7.28033 0.96967C7.13968 0.829018 6.94891 0.75 6.75 0.75C6.55109 0.75 6.36032 0.829018 6.21967 0.96967C6.07902 1.11032 6 1.30109 6 1.5V10.9397L4.28063 9.21937C4.13989 9.07864 3.94902 8.99958 3.75 8.99958C3.55098 8.99958 3.36011 9.07864 3.21937 9.21937C3.07864 9.3601 2.99958 9.55098 2.99958 9.75C2.99958 9.94902 3.07864 10.1399 3.21937 10.2806L6.21937 13.2806C6.28903 13.3504 6.37175 13.4057 6.46279 13.4434C6.55384 13.4812 6.65144 13.5006 6.75 13.5006C6.84856 13.5006 6.94616 13.4812 7.03721 13.4434C7.12825 13.4057 7.21097 13.3504 7.28063 13.2806L10.2806 10.2806C10.3504 10.211 10.4057 10.1283 10.4434 10.0372C10.4812 9.94616 10.5006 9.84856 10.5006 9.75C10.5006 9.65144 10.4812 9.55384 10.4434 9.46279C10.4057 9.37175 10.3504 9.28903 10.2806 9.21937Z" fill="#102A56"/>
</svg>
